<svg width="16" height="19" viewBox="0 0 16 19" fill="none" xmlns="http://www.w3.org/2000/svg">
<path d="M13.3033 13.6363L8 18.9396L2.6967 13.6363C-0.232233 10.7073 -0.232233 5.95864 2.6967 3.02971C5.62563 0.100775 10.3743 0.100775 13.3033 3.02971C16.2323 5.95864 16.2323 10.7073 13.3033 13.6363ZM8 11.6663C9.84092 11.6663 11.3333 10.1739 11.3333 8.33301C11.3333 6.49206 9.84092 4.99967 8 4.99967C6.15905 4.99967 4.66667 6.49206 4.66667 8.33301C4.66667 10.1739 6.15905 11.6663 8 11.6663ZM8 9.99967C7.0795 9.99967 6.33333 9.25351 6.33333 8.33301C6.33333 7.41253 7.0795 6.66634 8 6.66634C8.9205 6.66634 9.66667 7.41253 9.66667 8.33301C9.66667 9.25351 8.9205 9.99967 8 9.99967Z" fill="#898A8D"/>
</svg>
