<svg width="22" height="13" viewBox="0 0 22 13" fill="none" xmlns="http://www.w3.org/2000/svg">
<path d="M8.34268 12.7819L6.41083 12.2642L7.1983 9.3254C6.00919 8.8874 4.91661 8.2498 3.96116 7.4534L1.80783 9.6067L0.393621 8.1925L2.54695 6.0392C1.35581 4.6103 0.520141 2.87466 0.175781 0.968182L2.14386 0.610352C2.90289 4.8126 6.57931 8.0001 11.0002 8.0001C15.4211 8.0001 19.0976 4.8126 19.8566 0.610352L21.8247 0.968182C21.4803 2.87466 20.6446 4.6103 19.4535 6.0392L21.6068 8.1925L20.1926 9.6067L18.0393 7.4534C17.0838 8.2498 15.9912 8.8874 14.8021 9.3254L15.5896 12.2642L13.6578 12.7819L12.87 9.8418C12.2623 9.9459 11.6376 10.0001 11.0002 10.0001C10.3629 10.0001 9.7381 9.9459 9.1305 9.8418L8.34268 12.7819Z" fill="#000"/>
</svg>
